<svg width="406" height="36" viewBox="0 0 406 36" fill="none" xmlns="http://www.w3.org/2000/svg">
<path d="M23.1338 27.3092L32.7292 3.0923H44.8585V4.75384C43.9446 4.75384 43.1969 4.85077 42.6154 5.04461C42.0615 5.21077 41.6323 5.52923 41.3277 6C41.0231 6.47077 40.8154 7.12154 40.7046 7.9523C40.6215 8.75538 40.58 9.78 40.58 11.0262V27.1431C40.58 28.5277 40.6354 29.6215 40.7462 30.4246C40.8569 31.2277 41.0785 31.8508 41.4108 32.2938C41.7431 32.7369 42.2138 33.0277 42.8231 33.1662C43.46 33.3046 44.2908 33.3877 45.3154 33.4154V35.0769H29.6969V33.4154C30.7215 33.3877 31.5385 33.3046 32.1477 33.1662C32.7846 33 33.2692 32.7092 33.6015 32.2938C33.9615 31.8785 34.1969 31.2969 34.3077 30.5492C34.4185 29.7738 34.4738 28.7354 34.4738 27.4338V7.99384H34.2662L23.0923 35.4923H20.0185L8.47077 7.99384H8.30462V27.1431C8.30462 28.5277 8.36 29.6215 8.47077 30.4246C8.58154 31.2277 8.80308 31.8508 9.13539 32.2938C9.46769 32.7369 9.93846 33.0277 10.5477 33.1662C11.1846 33.3046 12.0154 33.3877 13.04 33.4154V35.0769H0.246154V33.4154C1.27077 33.3877 2.10154 33.3046 2.73846 33.1662C3.37539 33 3.86 32.7092 4.19231 32.2938C4.55231 31.8785 4.78769 31.2969 4.89846 30.5492C5.00923 29.7738 5.06462 28.7354 5.06462 27.4338V10.7354C5.06462 9.57231 5.00923 8.60308 4.89846 7.82769C4.78769 7.05231 4.58 6.44307 4.27539 6C3.97077 5.52923 3.52769 5.21077 2.94615 5.04461C2.39231 4.85077 1.64462 4.75384 0.703077 4.75384V3.0923H13.2892L22.9677 27.3092H23.1338ZM56.2854 12.6462C57.947 12.6462 59.5116 12.9369 60.9793 13.5185C62.4747 14.0723 63.7762 14.8477 64.8839 15.8446C66.0193 16.8415 66.9054 18.0323 67.5424 19.4169C68.207 20.7738 68.5393 22.2692 68.5393 23.9031C68.5393 25.5923 68.207 27.1431 67.5424 28.5554C66.9054 29.9677 66.0193 31.1862 64.8839 32.2108C63.7762 33.2354 62.4747 34.0385 60.9793 34.62C59.5116 35.2015 57.947 35.4923 56.2854 35.4923C54.6516 35.4923 53.1008 35.2154 51.6331 34.6615C50.1654 34.08 48.8777 33.2769 47.7701 32.2523C46.6624 31.2277 45.7901 30.0092 45.1531 28.5969C44.5162 27.1569 44.1977 25.5923 44.1977 23.9031C44.1977 22.2692 44.5162 20.76 45.1531 19.3754C45.7901 17.9908 46.6624 16.8 47.7701 15.8031C48.8777 14.8062 50.1654 14.0308 51.6331 13.4769C53.1008 12.9231 54.6516 12.6462 56.2854 12.6462ZM56.2854 15.0554C55.4547 15.0554 54.6931 15.2769 54.0008 15.72C53.3085 16.1354 52.7131 16.7308 52.2147 17.5062C51.7439 18.2815 51.3701 19.2231 51.0931 20.3308C50.8439 21.4108 50.7193 22.6154 50.7193 23.9446C50.7193 25.3292 50.8439 26.5754 51.0931 27.6831C51.3701 28.7908 51.7439 29.7323 52.2147 30.5077C52.7131 31.2831 53.2947 31.8923 53.9593 32.3354C54.6516 32.7508 55.427 32.9585 56.2854 32.9585C57.1439 32.9585 57.9193 32.7508 58.6116 32.3354C59.3316 31.8923 59.9408 31.2831 60.4393 30.5077C60.9377 29.7046 61.3254 28.7492 61.6024 27.6415C61.8793 26.5338 62.0177 25.3015 62.0177 23.9446C62.0177 22.6154 61.8793 21.4108 61.6024 20.3308C61.3254 19.2508 60.9377 18.3231 60.4393 17.5477C59.9408 16.7446 59.3316 16.1354 58.6116 15.72C57.9193 15.2769 57.1439 15.0554 56.2854 15.0554ZM77.8504 28.3062C77.8504 29.4415 77.8781 30.3415 77.9335 31.0062C78.0165 31.6431 78.1689 32.1415 78.3904 32.5015C78.6396 32.8338 78.9996 33.0554 79.4704 33.1662C79.9689 33.2769 80.6335 33.36 81.4642 33.4154V35.0769H68.3796V33.4154C69.1827 33.36 69.8196 33.2769 70.2904 33.1662C70.7888 33.0554 71.1627 32.8338 71.4119 32.5015C71.6888 32.1692 71.8688 31.6985 71.9519 31.0892C72.035 30.48 72.0765 29.6492 72.0765 28.5969V23.4046C72.0765 21.7708 72.0488 20.4554 71.9935 19.4585C71.9381 18.4338 71.8688 17.7415 71.7858 17.3815C71.7027 17.0215 71.5919 16.7308 71.4535 16.5092C71.315 16.26 71.1073 16.08 70.8304 15.9692C70.5535 15.8308 70.2073 15.7477 69.7919 15.72C69.3765 15.6646 68.8504 15.6369 68.2135 15.6369V14.2246L76.2304 12.6462L76.7704 16.3015H76.9365C77.8504 15.1385 78.9304 14.2385 80.1765 13.6015C81.4227 12.9646 82.7935 12.6462 84.2889 12.6462C86.0612 12.6462 87.4873 12.8954 88.5673 13.3938C89.675 13.8646 90.6581 14.6677 91.5165 15.8031C91.9873 16.44 92.4027 17.2708 92.7627 18.2954C93.1227 19.2923 93.3027 20.6769 93.3027 22.4492V28.3062C93.3027 29.4415 93.3304 30.3415 93.3858 31.0062C93.4689 31.6431 93.6212 32.1415 93.8427 32.5015C94.0919 32.8338 94.4519 33.0554 94.9227 33.1662C95.3935 33.2769 96.0304 33.36 96.8335 33.4154V35.0769H83.8319V33.4154C84.6627 33.3877 85.3135 33.3185 85.7842 33.2077C86.2827 33.0692 86.6565 32.8338 86.9058 32.5015C87.155 32.1692 87.3212 31.6985 87.4042 31.0892C87.4873 30.4523 87.5289 29.6215 87.5289 28.5969V22.9477C87.5289 21.5354 87.4458 20.3446 87.2796 19.3754C87.1135 18.4062 86.8365 17.6308 86.4489 17.0492C86.0889 16.44 85.6042 16.0108 84.995 15.7615C84.3858 15.4846 83.6242 15.3462 82.7104 15.3462C81.8242 15.3462 81.0627 15.5954 80.4258 16.0938C79.7889 16.5923 79.235 17.2846 78.7642 18.1708C78.515 18.6692 78.2935 19.32 78.0996 20.1231C77.9335 20.8985 77.8504 21.7154 77.8504 22.5738V28.3062ZM119.064 27.9323L124.464 14.1C124.99 12.7431 125.405 11.6354 125.71 10.7769C126.042 9.91846 126.291 9.2123 126.458 8.65846C126.624 8.10461 126.734 7.66154 126.79 7.32923C126.845 6.99692 126.873 6.67846 126.873 6.37384C126.873 5.70923 126.624 5.28 126.125 5.08615C125.627 4.86461 124.63 4.75384 123.134 4.75384V3.0923H134.931V4.75384C132.633 4.75384 131.041 5.87538 130.154 8.11846L119.23 35.4923H116.156L106.228 11.2338C105.674 9.93231 105.176 8.86615 104.733 8.03538C104.29 7.20461 103.819 6.55384 103.321 6.08308C102.822 5.58461 102.268 5.25231 101.659 5.08615C101.078 4.8923 100.385 4.79538 99.5821 4.79538V3.0923H115.284V4.79538C114.564 4.82307 113.954 4.86461 113.456 4.92C112.985 4.97538 112.611 5.0723 112.334 5.21077C112.058 5.32154 111.864 5.48769 111.753 5.70923C111.642 5.90307 111.587 6.15231 111.587 6.45692C111.587 6.84461 111.656 7.30154 111.794 7.82769C111.933 8.35384 112.141 8.99077 112.418 9.73846L119.064 27.9323ZM141.455 28.2646C141.455 29.3723 141.496 30.2585 141.579 30.9231C141.662 31.5877 141.828 32.1 142.078 32.46C142.327 32.82 142.687 33.0692 143.158 33.2077C143.628 33.3185 144.265 33.3877 145.068 33.4154V35.0769H131.984V33.4154C132.759 33.3877 133.382 33.3046 133.853 33.1662C134.351 33 134.725 32.7508 134.975 32.4185C135.251 32.0585 135.431 31.5738 135.515 30.9646C135.625 30.3277 135.681 29.5246 135.681 28.5554V23.4462C135.681 21.84 135.653 20.5246 135.598 19.5C135.542 18.4477 135.473 17.7277 135.39 17.34C135.251 16.6477 134.933 16.1908 134.435 15.9692C133.964 15.7477 133.091 15.6369 131.818 15.6369V14.2246L141.455 12.6462V28.2646ZM135.348 3.84C135.348 2.92615 135.653 2.16461 136.262 1.55538C136.899 0.918458 137.661 0.599997 138.547 0.599997C139.461 0.599997 140.222 0.918458 140.831 1.55538C141.468 2.16461 141.787 2.92615 141.787 3.84C141.787 4.72615 141.468 5.48769 140.831 6.12461C140.222 6.73384 139.461 7.03846 138.547 7.03846C137.661 7.03846 136.899 6.73384 136.262 6.12461C135.653 5.48769 135.348 4.72615 135.348 3.84ZM165.311 31.2138C162.791 34.0662 159.648 35.4923 155.882 35.4923C154.165 35.4923 152.6 35.2292 151.188 34.7031C149.804 34.1492 148.613 33.3877 147.616 32.4185C146.619 31.4215 145.844 30.2446 145.29 28.8877C144.736 27.5308 144.459 26.0215 144.459 24.36C144.459 22.6431 144.75 21.0785 145.331 19.6662C145.913 18.2262 146.73 16.9938 147.782 15.9692C148.862 14.9169 150.122 14.1 151.562 13.5185C153.03 12.9369 154.636 12.6462 156.38 12.6462C159.316 12.6462 161.6 13.4354 163.234 15.0138C164.868 16.5923 165.685 18.8077 165.685 21.66C165.685 22.1031 165.616 22.38 165.477 22.4908C165.339 22.5738 164.951 22.6154 164.314 22.6154H150.939C150.828 22.8646 150.773 23.3215 150.773 23.9862C150.773 26.7 151.354 28.8462 152.517 30.4246C153.708 32.0031 155.314 32.7923 157.336 32.7923C158.499 32.7923 159.648 32.5292 160.784 32.0031C161.947 31.4769 163.068 30.7292 164.148 29.76L165.311 31.2138ZM157.253 20.2892C158.36 20.2892 159.067 20.2338 159.371 20.1231C159.704 19.9846 159.87 19.68 159.87 19.2092C159.87 17.9908 159.524 16.9938 158.831 16.2185C158.139 15.4431 157.267 15.0554 156.214 15.0554C155.024 15.0554 153.957 15.5538 153.016 16.5508C152.102 17.52 151.507 18.7662 151.23 20.2892H157.253ZM183.587 19.8738C183.587 18.7662 183.559 17.8938 183.503 17.2569C183.448 16.5923 183.296 16.0938 183.047 15.7615C182.797 15.4015 182.423 15.1662 181.925 15.0554C181.454 14.9169 180.803 14.8062 179.973 14.7231V13.0615H189.36V25.6477C189.36 27.3369 189.374 28.6662 189.402 29.6354C189.457 30.5769 189.54 31.2831 189.651 31.7538C189.734 32.1138 189.831 32.4046 189.942 32.6262C190.053 32.82 190.233 32.9862 190.482 33.1246C190.731 33.2354 191.063 33.3185 191.479 33.3738C191.922 33.4015 192.49 33.4154 193.182 33.4154V35.0354L184.916 35.5338L184.459 31.8369H184.293C183.573 33 182.562 33.9 181.26 34.5369C179.959 35.1738 178.505 35.4923 176.899 35.4923C173.936 35.4923 171.679 34.44 170.128 32.3354C168.937 30.7292 168.342 28.4446 168.342 25.4815V19.8738C168.342 18.7385 168.314 17.8523 168.259 17.2154C168.203 16.5508 168.051 16.0523 167.802 15.72C167.58 15.3877 167.234 15.1662 166.763 15.0554C166.293 14.9169 165.642 14.8062 164.811 14.7231V13.0615H174.116V24.8169C174.116 27.6138 174.462 29.6492 175.154 30.9231C175.847 32.1692 176.954 32.7923 178.477 32.7923C180.111 32.7923 181.371 32.0446 182.257 30.5492C183.143 29.1092 183.587 26.9908 183.587 24.1938V19.8738ZM207.678 18.2954C208.26 17.5477 208.647 17.0215 208.841 16.7169C209.035 16.4123 209.132 16.1077 209.132 15.8031C209.132 15.4154 208.966 15.1385 208.634 14.9723C208.329 14.8062 207.803 14.7231 207.055 14.7231V13.0615H216.609V14.7231C216.083 14.7508 215.612 14.8062 215.197 14.8892C214.781 14.9723 214.366 15.1385 213.951 15.3877C213.535 15.6092 213.106 15.9277 212.663 16.3431C212.22 16.7585 211.707 17.2985 211.126 17.9631L206.889 22.8646L213.452 31.2969C214.089 32.1277 214.712 32.6954 215.321 33C215.931 33.2769 216.692 33.4154 217.606 33.4154V35.0769H204.397V33.4154C205.2 33.4154 205.754 33.3462 206.058 33.2077C206.391 33.0692 206.557 32.8062 206.557 32.4185C206.557 32.1138 206.46 31.7954 206.266 31.4631C206.072 31.1031 205.781 30.6462 205.394 30.0923L202.984 26.7692L201.157 28.9708C200.686 29.5523 200.312 30.0231 200.035 30.3831C199.758 30.7431 199.551 31.0338 199.412 31.2554C199.274 31.4769 199.177 31.6569 199.121 31.7954C199.094 31.9062 199.08 32.0169 199.08 32.1277C199.08 32.5985 199.274 32.9308 199.661 33.1246C200.077 33.3185 200.727 33.4154 201.614 33.4154V35.0769H191.187V33.4154C192.074 33.4154 192.932 33.2908 193.763 33.0415C194.594 32.7646 195.244 32.3492 195.715 31.7954L201.489 25.0246L194.552 16.2185C194.026 15.5538 193.555 15.1385 193.14 14.9723C192.752 14.8062 192.212 14.7231 191.52 14.7231V13.0615H204.189V14.7231C202.777 14.7231 202.071 15.1108 202.071 15.8862C202.071 16.1631 202.223 16.5231 202.527 16.9662L205.477 21.12L207.678 18.2954ZM240.633 35.4923C238.141 35.4923 235.884 35.1323 233.863 34.4123C231.869 33.6646 230.166 32.6123 228.753 31.2554C227.369 29.8708 226.289 28.2092 225.513 26.2708C224.766 24.3046 224.392 22.1031 224.392 19.6662C224.392 17.1462 224.793 14.8477 225.597 12.7708C226.427 10.6662 227.577 8.86615 229.044 7.37077C230.512 5.87538 232.27 4.72615 234.32 3.92307C236.369 3.0923 238.64 2.67692 241.132 2.67692C242.849 2.67692 244.483 2.91231 246.033 3.38308C247.584 3.85384 249.26 4.61538 251.06 5.66769L251.849 3.0923H253.344V13.6015H251.267C250.713 10.9985 249.592 8.97692 247.903 7.53692C246.241 6.09692 244.15 5.37692 241.63 5.37692C238.446 5.37692 235.967 6.60923 234.195 9.07384C232.45 11.5108 231.578 14.9308 231.578 19.3338C231.578 23.6538 232.437 26.9631 234.153 29.2615C235.87 31.56 238.363 32.7092 241.63 32.7092C243.984 32.7092 245.812 32.1138 247.113 30.9231C248.443 29.7046 249.107 28.0292 249.107 25.8969C249.107 24.6231 248.775 23.6954 248.11 23.1138C247.446 22.5046 246.324 22.1308 244.746 21.9923V20.3308H258.204V21.9923C256.847 21.9923 255.906 22.2969 255.38 22.9062C254.853 23.4877 254.59 24.5538 254.59 26.1046V31.6292C253.981 31.6292 253.469 31.6569 253.053 31.7123C252.638 31.74 252.223 31.8231 251.807 31.9615C251.42 32.0723 250.977 32.2662 250.478 32.5431C249.98 32.82 249.357 33.18 248.609 33.6231C246.477 34.8692 243.818 35.4923 240.633 35.4923ZM266.636 28.6385C266.636 29.7185 266.677 30.5769 266.76 31.2138C266.871 31.8231 267.079 32.2938 267.383 32.6262C267.688 32.9585 268.131 33.18 268.712 33.2908C269.294 33.3738 270.069 33.4154 271.039 33.4154V35.0769H257.165V33.4154C257.996 33.36 258.66 33.2769 259.159 33.1662C259.657 33.0554 260.031 32.8338 260.28 32.5015C260.529 32.1692 260.682 31.6985 260.737 31.0892C260.82 30.4523 260.862 29.6077 260.862 28.5554V23.4877C260.862 21.7708 260.82 20.4 260.737 19.3754C260.654 18.3508 260.474 17.5615 260.197 17.0077C259.92 16.4538 259.519 16.0938 258.992 15.9277C258.494 15.7338 257.829 15.6369 256.999 15.6369V14.1831L265.306 12.6462L265.971 17.4231H266.137C266.885 15.9554 267.868 14.7923 269.086 13.9338C270.305 13.0754 271.592 12.6462 272.949 12.6462C274.002 12.6462 274.86 12.9092 275.525 13.4354C276.189 13.9615 276.522 14.6262 276.522 15.4292C276.522 16.3154 276.259 17.0631 275.732 17.6723C275.234 18.2815 274.542 18.5862 273.656 18.5862C273.24 18.5862 272.866 18.5031 272.534 18.3369C272.202 18.1708 271.897 17.9908 271.62 17.7969C271.371 17.5754 271.108 17.3815 270.831 17.2154C270.582 17.0215 270.319 16.9246 270.042 16.9246C269.516 16.9246 269.017 17.2708 268.546 17.9631C268.076 18.6554 267.688 19.5831 267.383 20.7462C267.162 21.5769 266.982 22.5185 266.843 23.5708C266.705 24.5954 266.636 25.62 266.636 26.6446V28.6385ZM284.374 28.2646C284.374 29.3723 284.416 30.2585 284.499 30.9231C284.582 31.5877 284.748 32.1 284.997 32.46C285.247 32.82 285.607 33.0692 286.077 33.2077C286.548 33.3185 287.185 33.3877 287.988 33.4154V35.0769H274.904V33.4154C275.679 33.3877 276.302 33.3046 276.773 33.1662C277.271 33 277.645 32.7508 277.894 32.4185C278.171 32.0585 278.351 31.5738 278.434 30.9646C278.545 30.3277 278.601 29.5246 278.601 28.5554V23.4462C278.601 21.84 278.573 20.5246 278.517 19.5C278.462 18.4477 278.393 17.7277 278.31 17.34C278.171 16.6477 277.853 16.1908 277.354 15.9692C276.884 15.7477 276.011 15.6369 274.737 15.6369V14.2246L284.374 12.6462V28.2646ZM278.268 3.84C278.268 2.92615 278.573 2.16461 279.182 1.55538C279.819 0.918458 280.581 0.599997 281.467 0.599997C282.381 0.599997 283.142 0.918458 283.751 1.55538C284.388 2.16461 284.707 2.92615 284.707 3.84C284.707 4.72615 284.388 5.48769 283.751 6.12461C283.142 6.73384 282.381 7.03846 281.467 7.03846C280.581 7.03846 279.819 6.73384 279.182 6.12461C278.573 5.48769 278.268 4.72615 278.268 3.84ZM296.517 28.2231C296.517 29.3862 296.545 30.3 296.6 30.9646C296.656 31.6292 296.808 32.1415 297.057 32.5015C297.307 32.8338 297.667 33.0554 298.137 33.1662C298.608 33.2769 299.259 33.36 300.09 33.4154V35.0769H286.963V33.4154C287.794 33.36 288.459 33.2769 288.957 33.1662C289.456 33.0554 289.83 32.8338 290.079 32.5015C290.328 32.1692 290.494 31.6985 290.577 31.0892C290.66 30.4523 290.702 29.6077 290.702 28.5554V23.4046C290.702 21.8262 290.674 20.5108 290.619 19.4585C290.591 18.4062 290.522 17.6862 290.411 17.2985C290.328 16.9385 290.217 16.6615 290.079 16.4677C289.968 16.2462 289.774 16.08 289.497 15.9692C289.248 15.8308 288.916 15.7477 288.5 15.72C288.085 15.6646 287.545 15.6369 286.88 15.6369V14.2246L294.897 12.6462L295.396 16.26H295.645C296.808 14.9585 297.971 14.0308 299.134 13.4769C300.325 12.9231 301.696 12.6462 303.247 12.6462C305.074 12.6462 306.583 12.9646 307.774 13.6015C308.965 14.2385 309.865 15.1523 310.474 16.3431H310.64C311.637 15.18 312.828 14.28 314.213 13.6431C315.597 12.9785 317.079 12.6462 318.657 12.6462C320.319 12.6462 321.759 12.8538 322.977 13.2692C324.223 13.6846 325.193 14.28 325.885 15.0554C326.439 15.6923 326.84 16.5231 327.09 17.5477C327.367 18.5723 327.505 19.9985 327.505 21.8262V28.2231C327.505 29.3585 327.533 30.2585 327.588 30.9231C327.671 31.5877 327.837 32.1 328.087 32.46C328.336 32.82 328.696 33.0554 329.167 33.1662C329.637 33.2769 330.288 33.36 331.119 33.4154V35.0769H317.993V33.4154C318.823 33.3877 319.474 33.3185 319.945 33.2077C320.443 33.0692 320.817 32.8338 321.067 32.5015C321.343 32.1415 321.51 31.6569 321.565 31.0477C321.648 30.4385 321.69 29.6077 321.69 28.5554V23.1138C321.69 21.6738 321.607 20.4554 321.44 19.4585C321.274 18.4615 321.011 17.6585 320.651 17.0492C320.291 16.44 319.807 16.0108 319.197 15.7615C318.616 15.4846 317.896 15.3462 317.037 15.3462C316.068 15.3462 315.265 15.5815 314.628 16.0523C314.019 16.5231 313.507 17.1323 313.091 17.88C312.371 19.1815 312.011 20.8015 312.011 22.74V28.2231C312.011 29.3585 312.039 30.2585 312.094 30.9231C312.15 31.5877 312.302 32.1 312.551 32.46C312.8 32.82 313.16 33.0554 313.631 33.1662C314.13 33.2769 314.808 33.36 315.667 33.4154V35.0769H302.499V33.4154C303.33 33.36 303.98 33.2769 304.451 33.1662C304.95 33.0554 305.323 32.8338 305.573 32.5015C305.85 32.1692 306.016 31.6985 306.071 31.0892C306.154 30.4523 306.196 29.6077 306.196 28.5554V23.1138C306.196 21.6738 306.113 20.4554 305.947 19.4585C305.78 18.4615 305.503 17.6585 305.116 17.0492C304.756 16.44 304.271 16.0108 303.662 15.7615C303.053 15.4846 302.291 15.3462 301.377 15.3462C300.463 15.3462 299.702 15.5677 299.093 16.0108C298.511 16.4538 298.027 17.0492 297.639 17.7969C297.279 18.4615 297.002 19.2231 296.808 20.0815C296.614 20.94 296.517 21.8262 296.517 22.74V28.2231ZM342.477 12.6462C344.139 12.6462 345.703 12.9369 347.171 13.5185C348.667 14.0723 349.968 14.8477 351.076 15.8446C352.211 16.8415 353.097 18.0323 353.734 19.4169C354.399 20.7738 354.731 22.2692 354.731 23.9031C354.731 25.5923 354.399 27.1431 353.734 28.5554C353.097 29.9677 352.211 31.1862 351.076 32.2108C349.968 33.2354 348.667 34.0385 347.171 34.62C345.703 35.2015 344.139 35.4923 342.477 35.4923C340.843 35.4923 339.293 35.2154 337.825 34.6615C336.357 34.08 335.07 33.2769 333.962 32.2523C332.854 31.2277 331.982 30.0092 331.345 28.5969C330.708 27.1569 330.39 25.5923 330.39 23.9031C330.39 22.2692 330.708 20.76 331.345 19.3754C331.982 17.9908 332.854 16.8 333.962 15.8031C335.07 14.8062 336.357 14.0308 337.825 13.4769C339.293 12.9231 340.843 12.6462 342.477 12.6462ZM342.477 15.0554C341.647 15.0554 340.885 15.2769 340.193 15.72C339.5 16.1354 338.905 16.7308 338.407 17.5062C337.936 18.2815 337.562 19.2231 337.285 20.3308C337.036 21.4108 336.911 22.6154 336.911 23.9446C336.911 25.3292 337.036 26.5754 337.285 27.6831C337.562 28.7908 337.936 29.7323 338.407 30.5077C338.905 31.2831 339.487 31.8923 340.151 32.3354C340.843 32.7508 341.619 32.9585 342.477 32.9585C343.336 32.9585 344.111 32.7508 344.803 32.3354C345.523 31.8923 346.133 31.2831 346.631 30.5077C347.13 29.7046 347.517 28.7492 347.794 27.6415C348.071 26.5338 348.21 25.3015 348.21 23.9446C348.21 22.6154 348.071 21.4108 347.794 20.3308C347.517 19.2508 347.13 18.3231 346.631 17.5477C346.133 16.7446 345.523 16.1354 344.803 15.72C344.111 15.2769 343.336 15.0554 342.477 15.0554ZM364.042 28.2646C364.042 29.3723 364.084 30.2585 364.167 30.9231C364.25 31.5877 364.416 32.1 364.665 32.46C364.915 32.82 365.275 33.0692 365.745 33.2077C366.216 33.3185 366.853 33.3877 367.656 33.4154V35.0769H354.572V33.4154C355.347 33.3877 355.97 33.3046 356.441 33.1662C356.939 33 357.313 32.7508 357.562 32.4185C357.839 32.0585 358.019 31.5738 358.102 30.9646C358.213 30.3277 358.268 29.5246 358.268 28.5554V23.4462C358.268 21.84 358.241 20.5246 358.185 19.5C358.13 18.4477 358.061 17.7277 357.978 17.34C357.839 16.6477 357.521 16.1908 357.022 15.9692C356.552 15.7477 355.679 15.6369 354.405 15.6369V14.2246L364.042 12.6462V28.2646ZM357.936 3.84C357.936 2.92615 358.241 2.16461 358.85 1.55538C359.487 0.918458 360.248 0.599997 361.135 0.599997C362.048 0.599997 362.81 0.918458 363.419 1.55538C364.056 2.16461 364.375 2.92615 364.375 3.84C364.375 4.72615 364.056 5.48769 363.419 6.12461C362.81 6.73384 362.048 7.03846 361.135 7.03846C360.248 7.03846 359.487 6.73384 358.85 6.12461C358.241 5.48769 357.936 4.72615 357.936 3.84ZM376.185 28.6385C376.185 29.7185 376.227 30.5769 376.31 31.2138C376.421 31.8231 376.628 32.2938 376.933 32.6262C377.237 32.9585 377.681 33.18 378.262 33.2908C378.844 33.3738 379.619 33.4154 380.588 33.4154V35.0769H366.714V33.4154C367.545 33.36 368.21 33.2769 368.708 33.1662C369.207 33.0554 369.581 32.8338 369.83 32.5015C370.079 32.1692 370.231 31.6985 370.287 31.0892C370.37 30.4523 370.411 29.6077 370.411 28.5554V23.4877C370.411 21.7708 370.37 20.4 370.287 19.3754C370.204 18.3508 370.024 17.5615 369.747 17.0077C369.47 16.4538 369.068 16.0938 368.542 15.9277C368.044 15.7338 367.379 15.6369 366.548 15.6369V14.1831L374.856 12.6462L375.521 17.4231H375.687C376.434 15.9554 377.417 14.7923 378.636 13.9338C379.854 13.0754 381.142 12.6462 382.499 12.6462C383.551 12.6462 384.41 12.9092 385.074 13.4354C385.739 13.9615 386.071 14.6262 386.071 15.4292C386.071 16.3154 385.808 17.0631 385.282 17.6723C384.784 18.2815 384.091 18.5862 383.205 18.5862C382.79 18.5862 382.416 18.5031 382.084 18.3369C381.751 18.1708 381.447 17.9908 381.17 17.7969C380.921 17.5754 380.657 17.3815 380.381 17.2154C380.131 17.0215 379.868 16.9246 379.591 16.9246C379.065 16.9246 378.567 17.2708 378.096 17.9631C377.625 18.6554 377.237 19.5831 376.933 20.7462C376.711 21.5769 376.531 22.5185 376.393 23.5708C376.254 24.5954 376.185 25.62 376.185 26.6446V28.6385ZM405.436 31.2138C402.916 34.0662 399.773 35.4923 396.007 35.4923C394.29 35.4923 392.725 35.2292 391.313 34.7031C389.928 34.1492 388.738 33.3877 387.741 32.4185C386.744 31.4215 385.968 30.2446 385.414 28.8877C384.861 27.5308 384.584 26.0215 384.584 24.36C384.584 22.6431 384.874 21.0785 385.456 19.6662C386.038 18.2262 386.854 16.9938 387.907 15.9692C388.987 14.9169 390.247 14.1 391.687 13.5185C393.154 12.9369 394.761 12.6462 396.505 12.6462C399.441 12.6462 401.725 13.4354 403.359 15.0138C404.993 16.5923 405.81 18.8077 405.81 21.66C405.81 22.1031 405.741 22.38 405.602 22.4908C405.464 22.5738 405.076 22.6154 404.439 22.6154H391.064C390.953 22.8646 390.898 23.3215 390.898 23.9862C390.898 26.7 391.479 28.8462 392.642 30.4246C393.833 32.0031 395.439 32.7923 397.461 32.7923C398.624 32.7923 399.773 32.5292 400.908 32.0031C402.071 31.4769 403.193 30.7292 404.273 29.76L405.436 31.2138ZM397.378 20.2892C398.485 20.2892 399.191 20.2338 399.496 20.1231C399.828 19.9846 399.994 19.68 399.994 19.2092C399.994 17.9908 399.648 16.9938 398.956 16.2185C398.264 15.4431 397.391 15.0554 396.339 15.0554C395.148 15.0554 394.082 15.5538 393.141 16.5508C392.227 17.52 391.631 18.7662 391.354 20.2892H397.378Z" fill="#2C1810"/>
</svg>
