<?xml version="1.0" encoding="UTF-8" standalone="no"?>
<!-- Created with Inkscape (http://www.inkscape.org/) -->
<svg xmlns:dc="http://purl.org/dc/elements/1.1/" xmlns:cc="http://creativecommons.org/ns#" xmlns:rdf="http://www.w3.org/1999/02/22-rdf-syntax-ns#" xmlns:svg="http://www.w3.org/2000/svg" xmlns="http://www.w3.org/2000/svg" xmlns:sodipodi="http://sodipodi.sourceforge.net/DTD/sodipodi-0.dtd" xmlns:inkscape="http://www.inkscape.org/namespaces/inkscape" width="297.25067" height="126.83333" viewBox="0 0 78.647573 33.557984" version="1.1" id="svg18182" inkscape:version="0.92.1 r15371" sodipodi:docname="Logo Sodebo.svg">
  <defs id="defs18176"/>
  <sodipodi:namedview id="base" pagecolor="#ffffff" bordercolor="#666666" borderopacity="1.0" inkscape:pageopacity="0.0" inkscape:pageshadow="2" inkscape:zoom="3.2251309" inkscape:cx="211.8514" inkscape:cy="39.032797" inkscape:document-units="mm" inkscape:current-layer="layer1" showgrid="false" fit-margin-top="5" fit-margin-left="5" fit-margin-right="5" fit-margin-bottom="5" units="px" inkscape:window-width="1920" inkscape:window-height="992" inkscape:window-x="0" inkscape:window-y="31" inkscape:window-maximized="1"/>
  <metadata id="metadata18179">
    <rdf:RDF>
      <cc:Work rdf:about="">
        <dc:format>image/svg+xml</dc:format>
        <dc:type rdf:resource="http://purl.org/dc/dcmitype/StillImage"/>
        <dc:title/>
      </cc:Work>
    </rdf:RDF>
  </metadata>
  <g inkscape:label="Calque 1" inkscape:groupmode="layer" id="layer1" transform="translate(-105.81907,-64.018626)">
    <g id="g5456" transform="matrix(0.35277777,0,0,-0.35277777,111.50761,65.341543)">
      <path d="m 0,0 c -6.833,0 -12.375,-5.541 -12.375,-12.375 v -62.876 c 0,-6.831 5.542,-12.374 12.375,-12.374 h 190.687 c 6.836,0 12.376,5.543 12.376,12.374 v 62.876 C 203.063,-5.541 197.523,0 190.687,0 H 0" style="fill:#0f0c09;fill-opacity:1;fill-rule:nonzero;stroke:none" id="path5458" inkscape:connector-curvature="0"/>
    </g>
    <g id="g5460" transform="matrix(0.35277777,0,0,-0.35277777,127.80364,72.627903)">
      <path d="m 0,0 c -8.678,-0.024 -17.42,-8.014 -17.42,-16.129 0,-8.984 16.596,-6.6 16.596,-13.076 0,-2.532 -4.703,-4.718 -10.944,-4.718 -2.034,0 -4.762,0.05 -7.437,0.737 -0.567,0.145 -0.696,-0.178 -0.584,-0.684 1.475,-6.58 5.304,-8.213 10.623,-6.355 8.051,2.812 12.102,7.908 12.102,13.355 0,9.978 -15.125,11.772 -15.125,15.572 0,2.979 3.992,4.403 8.27,4.403 2.794,0 5.016,-0.22 7.013,-0.66 0.559,-0.126 0.893,0.086 0.962,0.676 C 4.656,-1.766 2.427,0 0.017,0 0.011,0 0.006,0 0,0" style="fill:#ffffff;fill-opacity:1;fill-rule:nonzero;stroke:none" id="path5462" inkscape:connector-curvature="0"/>
    </g>
    <g id="g5464" transform="matrix(0.35277777,0,0,-0.35277777,140.70433,72.440234)">
      <path d="m 0,0 c -3.015,-0.585 -6.69,-6.192 -6.69,-6.192 0.313,-1.117 0.212,-3.116 1.636,-2.838 0.135,0.024 7.402,3.69 7.566,6.807 0.069,1.353 -0.372,2.03 -0.372,2.03 0,0 -0.64,0.254 -1.463,0.254 C 0.461,0.061 0.233,0.044 0,0" style="fill:#f49500;fill-opacity:1;fill-rule:nonzero;stroke:none" id="path5466" inkscape:connector-curvature="0"/>
    </g>
    <g id="g5468" transform="matrix(0.35277777,0,0,-0.35277777,135.56115,71.691993)">
      <path d="m 0,0 c -1.94,-1.353 -1.521,-6.149 -1.521,-6.149 0.863,-0.608 1.919,-1.918 2.838,-1.28 0.083,0.06 3.479,4.775 1.834,6.823 C 2.433,0.283 1.719,0.576 1.719,0.576 1.719,0.576 0.718,0.505 0,0" style="fill:#f49500;fill-opacity:1;fill-rule:nonzero;stroke:none" id="path5470" inkscape:connector-curvature="0"/>
    </g>
    <g id="g5472" transform="matrix(0.35277777,0,0,-0.35277777,131.4436,72.57414)">
      <path d="m 0,0 c 0,0 -0.427,-0.567 -0.485,-1.286 -0.149,-1.921 2.732,-4.942 2.732,-4.942 0.174,0.01 0.375,-0.001 0.58,-0.012 0.679,-0.035 1.414,-0.07 1.467,0.628 0.007,0.088 -1.043,5.035 -2.963,5.559 C 1.002,0.037 0.725,0.064 0.511,0.064 0.182,0.064 0,0 0,0" style="fill:#f49500;fill-opacity:1;fill-rule:nonzero;stroke:none" id="path5474" inkscape:connector-curvature="0"/>
    </g>
    <g id="g5476" transform="matrix(0.35277777,0,0,-0.35277777,130.64551,87.003007)">
      <path d="m 0,0 c 0.11,-0.646 0.592,-1.199 0.592,-1.199 0,0 0.523,-0.204 1.358,-0.081 1.921,0.284 2.61,4.631 2.597,4.707 C 4.405,4.255 3.174,4.068 2.401,4.177 2.401,4.177 -0.304,1.739 0,0" style="fill:#f49500;fill-opacity:1;fill-rule:nonzero;stroke:none" id="path5478" inkscape:connector-curvature="0"/>
    </g>
    <g id="g5480" transform="matrix(0.35277777,0,0,-0.35277777,127.66511,75.784647)">
      <path d="m 0,0 c -0.718,-0.275 -1.262,-0.97 -1.262,-0.97 0,0 -0.134,-0.662 0.161,-1.618 0.685,-2.209 5.786,-2.045 5.872,-2.014 0.918,0.356 0.478,1.766 0.458,2.698 0,0 -2.525,2.037 -4.456,2.037 C 0.5,0.133 0.24,0.092 0,0" style="fill:#f49500;fill-opacity:1;fill-rule:nonzero;stroke:none" id="path5482" inkscape:connector-curvature="0"/>
    </g>
    <g id="g5484" transform="matrix(0.35277777,0,0,-0.35277777,138.16587,82.476965)">
      <path d="m 0,0 c 0.045,-0.068 3.864,-3.08 5.614,-2.26 0.756,0.358 1.018,0.802 1.018,0.802 0,0 -0.03,0.694 -0.428,1.259 C 5.131,1.326 1.142,1.748 1.142,1.748 0.61,1.246 -0.507,0.719 0,0" style="fill:#f49500;fill-opacity:1;fill-rule:nonzero;stroke:none" id="path5486" inkscape:connector-curvature="0"/>
    </g>
    <g id="g5488" transform="matrix(0.35277777,0,0,-0.35277777,157.67172,84.674991)">
      <path d="m 0,0 c -1.648,0 -3.838,0.421 -5.644,2.219 -2.533,-0.111 -5.044,-0.285 -7.569,-0.521 -1.883,-1.046 -4.141,-1.69 -6.352,-1.69 -1.168,0 -2.26,0.181 -3.265,0.532 -2.662,-0.385 -5.39,-0.839 -8.237,-1.35 -6.008,-1.2 -12.122,-2.59 -18.048,-4.51 -0.356,-0.322 -1.491,-1.225 -3.103,-1.225 -0.131,0 -0.262,0.011 -0.393,0.024 -1.094,-0.406 -2.179,-0.825 -3.254,-1.27 -1.348,-0.55 -2.662,-1.173 -3.947,-1.865 -0.053,-0.167 -0.119,-0.325 -0.206,-0.473 -0.643,-1.127 -1.389,-1.535 -1.532,-1.606 -0.133,-0.064 -0.28,-0.095 -0.424,-0.095 l -0.118,0.008 c -0.07,0.008 -0.457,0.062 -0.936,0.242 -0.207,-0.129 -0.395,-0.287 -0.548,-0.491 -0.075,-0.162 -0.19,-0.512 -0.251,-0.696 l -0.004,-0.004 h 0.004 l -0.033,-0.113 -0.038,-0.236 0.066,-0.126 0.587,0.451 c 0.707,0.317 1.411,0.635 2.116,0.91 3.754,1.532 7.442,2.313 11.001,3.184 14.361,3.526 25.541,4.75 29.65,5.222 l 1.567,0.506 c -4.045,-0.05 -14.347,-1.546 -22.972,-3.32 0.241,0.055 -5.445,-0.92 -8.658,-1.631 9.046,2.592 20.196,4.715 32.42,5.989 l 0.055,0.006 c -0.135,-0.077 -0.176,-0.147 -0.041,-0.195 0.106,-0.028 0.934,0.03 1.889,0.089 0.887,0.054 1.883,0.108 2.514,0.094 16.208,1.944 32.986,0.698 35.585,0.613 1.719,-0.061 3.672,-0.15 5.722,-0.297 l 1.559,-0.115 c 0.498,-0.031 0.928,0.818 0.098,1.085 L 27.895,-0.22 C 26.841,0.073 25.777,0.367 24.707,0.578 24.6,0.602 24.491,0.621 24.385,0.639 23.513,0.387 22.561,0.209 21.51,0.155 21.314,0.142 21.118,0.136 20.925,0.136 18.86,0.136 17.052,0.737 15.602,1.89 L 15.35,1.91 C 12.333,2.108 9.454,2.248 6.664,2.321 4.765,0.843 2.49,0 0,0" style="fill:#94c119;fill-opacity:1;fill-rule:nonzero;stroke:none" id="path5490" inkscape:connector-curvature="0"/>
    </g>
    <g id="g5492" transform="matrix(0.35277777,0,0,-0.35277777,137.1958,84.344871)">
      <path d="m 0,0 c -0.843,-1.186 0.743,-2.862 2.092,-4.422 1.398,-1.612 2.688,-2.095 3.733,-2.095 1.535,0 2.527,1.04 2.527,1.04 -0.666,0.395 -2.288,4.087 -3.533,5.166 0,0 -1.789,0.994 -3.27,0.994 C 0.926,0.683 0.355,0.505 0,0" style="fill:#f49500;fill-opacity:1;fill-rule:nonzero;stroke:none" id="path5494" inkscape:connector-curvature="0"/>
    </g>
    <g id="g5496" transform="matrix(0.35277777,0,0,-0.35277777,134.5633,85.935678)">
      <path d="m 0,0 c 0,0 0.142,-5.12 1.975,-6.624 0.675,-0.56 1.554,-0.671 1.554,-0.671 0,0 0.592,0.289 1.124,1.216 C 5.867,-3.94 2.418,1.211 2.337,1.278 2.165,1.421 1.996,1.483 1.832,1.483 1.167,1.483 0.555,0.505 0,0" style="fill:#f49500;fill-opacity:1;fill-rule:nonzero;stroke:none" id="path5498" inkscape:connector-curvature="0"/>
    </g>
    <g id="g5500" transform="matrix(0.35277777,0,0,-0.35277777,134.0241,75.35372)">
      <path d="m 0,0 -0.301,-0.539 c 0.591,-0.352 2.209,-1.229 3.456,-2.646 -1.958,1.011 -7.948,3.488 -13.227,-1.929 -3.166,-3.244 -4.04,-12.13 0.882,-18.101 2.657,-3.225 9.547,-7.485 16.411,-0.446 6.869,7.039 6.334,17.041 2.973,21.119 C 8.274,-0.216 5.228,0.284 2.966,0.284 1.26,0.284 0,0 0,0 m -6.038,-19.872 c -2.022,3.623 -0.508,9.185 2.621,11.319 2.729,1.863 6.975,2.756 8.546,-0.056 2.212,-3.967 -1.091,-10.459 -4.039,-12.471 -1.055,-0.718 -2.256,-1.176 -3.415,-1.176 -1.409,0 -2.758,0.676 -3.713,2.384" style="fill:#f49500;fill-opacity:1;fill-rule:nonzero;stroke:none" id="path5502" inkscape:connector-curvature="0"/>
    </g>
    <g id="g5504" transform="matrix(0.35277777,0,0,-0.35277777,145.06728,73.033536)">
      <path d="m 0,0 c -0.939,-1.905 -1.558,-5.354 -1.909,-9.184 -6.646,1.392 -13.38,-4.27 -13.38,-13.411 0,-0.644 0.042,-1.273 0.121,-1.892 0.369,-0.122 0.739,-0.266 1.098,-0.438 0.627,-0.308 1.244,-0.693 1.708,-1.344 0.632,-0.929 0.63,-1.792 0.649,-1.898 0.013,-0.24 -0.049,-0.473 -0.17,-0.68 -0.073,-0.129 -0.399,-0.595 -1.084,-1.023 1.211,-1.413 2.876,-2.276 4.951,-2.276 2.8,0 5.079,2.475 6.357,5.668 0.647,-3.446 1.705,-5.672 5.171,-5.672 1.084,0 2.106,0.501 2.798,0.96 0.281,0.183 0.384,0.483 0.154,0.76 C 2.971,-26.19 3.431,-6.54 6.979,1.413 7.377,2.308 6.831,2.66 5.893,2.66 4.032,2.66 0.629,1.276 0,0 m -9.036,-22.523 c -0.217,5.565 3.197,10.954 6.898,10.23 -0.106,-1.96 -0.164,-5.544 -0.173,-6.206 0,-4.925 -2.509,-9.046 -4.465,-9.047 -1.159,0 -2.124,1.445 -2.26,5.023" style="fill:#ffffff;fill-opacity:1;fill-rule:nonzero;stroke:none" id="path5506" inkscape:connector-curvature="0"/>
    </g>
    <g id="g5508" transform="matrix(0.35277777,0,0,-0.35277777,154.81411,72.608695)">
      <path d="m 0,0 c 0.771,-3.464 0.116,-14.473 0.093,-20.893 0,-9.195 3.582,-12.347 8.007,-12.347 6.16,0 11.365,5.838 11.365,14.556 0,5.881 -3.066,8.375 -6.314,8.375 -2.713,0 -5.554,-1.738 -6.842,-4.688 0.398,2.309 0.806,10.249 0.31,12.613 C 6.274,-0.738 2.809,1.015 1.022,1.015 0.289,1.015 -0.166,0.722 0,0 m 6.326,-24.504 c 0,5.826 2.552,9.713 4.604,9.713 1.318,0 2.397,-1.978 2.397,-5.538 0,-6.32 -1.873,-9.928 -4.421,-9.928 -1.23,0 -2.58,1.559 -2.58,5.753" style="fill:#ffffff;fill-opacity:1;fill-rule:nonzero;stroke:none" id="path5510" inkscape:connector-curvature="0"/>
    </g>
    <g id="g5512" transform="matrix(0.35277777,0,0,-0.35277777,166.15323,76.350485)">
      <path d="m 0,0 c -13.177,-0.688 -15.023,-22.496 -3.117,-22.496 0.173,0 0.353,0.004 0.535,0.014 13.306,0.698 15.067,22.499 3.12,22.499 C 0.361,0.017 0.185,0.011 0,0 m -1.147,-2.952 0.076,0.003 c 4.368,0.002 4.037,-16.286 -1.074,-16.511 l -0.065,-0.004 c -4.058,0 -3.127,16.331 1.063,16.512" style="fill:#ffffff;fill-opacity:1;fill-rule:nonzero;stroke:none" id="path5514" inkscape:connector-curvature="0"/>
    </g>
    <g id="g5516" transform="matrix(0.35277777,0,0,-0.35277777,147.84755,81.336293)">
      <path d="m 0,0 c 0.611,-6.246 4.354,-8.489 8.282,-8.489 4.033,0 8.274,2.359 9.532,5.184 0.408,1.407 0.244,2.318 -0.265,3.108 -0.092,0.142 -0.205,0.216 -0.321,0.216 -0.104,0 -0.211,-0.061 -0.303,-0.18 -2.03,-2.682 -4.661,-4.172 -6.759,-4.172 -1.713,0 -3.069,0.995 -3.458,3.146 4.475,1.098 9.805,4.748 9.805,9.891 0,3.109 -1.91,5.612 -5.681,5.612 C 4.474,14.316 -0.743,7.577 0,0 m 9.792,11.796 c 2.25,0 0.896,-9.215 -3.643,-10.734 -0.182,4.388 1.9,10.734 3.643,10.734" style="fill:#ffffff;fill-opacity:1;fill-rule:nonzero;stroke:none" id="path5518" inkscape:connector-curvature="0"/>
    </g>
  </g>
</svg>